# xmcd
#
# Track frame offsets:
#	150
#	15113
#	37872
#	53970
#	80799
#	98414
#	120922
#	130539
#	144897
#
# Disc length: 2260 seconds
#
# Revision: 0
# Processed by: cddbd v1.5.2PL0 Copyright (c) Steve Scherf et al.
# Submitted via: EasyCDDAExtractor 9.0.0.1
#
DISCID=5908d209
DTITLE=Maurício Horn - Brasilheiras - Instrumental
DYEAR=2007
DGENRE=Instrumental
TTITLE0=Brasilheiras
TTITLE1=La Bastonada
TTITLE2=Choro Nº 11
TTITLE3=Alto-Mar
TTITLE4=Desgarrados
TTITLE5=Tristezas do Jeca - Prenda Minha
TTITLE6=Pealo de Rodeio
TTITLE7=Nada de Choro
TTITLE8=Oliva
EXTD=
EXTT0=
EXTT1=
EXTT2=
EXTT3=
EXTT4=
EXTT5=
EXTT6=
EXTT7=
EXTT8=
PLAYORDER=
